<svg xmlns="http://www.w3.org/2000/svg" id="Layer_1" data-name="Layer 1" viewBox="85.21332550048828 51.06997299194336 113.03617095947266 141.34002685546875"><defs><style>.cls-2{fill:#0546c7}.cls-4{fill:#f9f8f4}</style></defs><path d="M198.21 77.72v.5c-.02.74-.03 1.5-.04 2.25-.22 30.19-1.64 48.95-4.56 59.88 2.59 1.91 4.03 4.4 4.3 7.41.22 2.49-.45 4.83-1.04 6.91-.39 1.38-.76 2.69-.82 3.81.03.59.13 2.23.19 3.91.16 4.17.24 6.08-1.35 7.76a4.83 4.83 0 0 1-3.49 1.51c-3.15 0-4.42-2.64-4.84-3.5-.41-.86-.93-1.94-2.34-2.84-.73-.47-1.49-.91-2.29-1.33-7.72 11.11-16.24 17.78-22.96 21.7-7.53 4.39-14.01 6.09-17.2 6.72-3.2-.62-9.68-2.33-17.21-6.71-6.61-3.85-14.97-10.36-22.59-21.13-.45.26-.88.52-1.3.79-1.59 1.02-2.16 2.21-2.53 3-1.02 2.15-2.57 3.25-4.6 3.26h-.03c-1.3 0-2.56-.54-3.46-1.48-1.5-1.57-1.46-3.35-1.41-5.8.03-1.33.1-2.88.16-4.13.03-.6.06-1.33.06-1.56-.04-1.15-.39-2.48-.75-3.89-.55-2.09-1.17-4.46-.91-6.97.25-2.43 1.26-4.52 3.02-6.25-3.14-10.74-4.67-29.76-4.92-61.02 0-.77-.02-1.97-.04-2.7v.39c-.15-5.86-.3-12.5 5.74-16.37 14.26-9.14 42.43-10.56 50.72-10.77 8.33.22 36.47 1.62 50.73 10.74 6.05 3.87 5.89 10.07 5.76 15.93Z" class="cls-4"/><path d="M176.43 162.81a.39.39 0 0 0-.54-.03c-4.38 3.43-13.03 9.18-17.68 10.61-2.05.63-5.58.18-8.99-.26-4.55-.59-8.85-1.15-9.91.73-.74 1.3.22 3.62 2.93 7.11-1.5-.33-9.06-2.35-15.21-5.93-3.26-1.9-11.91-6.93-17.32-12.19a.365.365 0 0 0-.52 0c-.15.13-.21.37-.06.57 5.3 6.66 11.4 12.03 18.14 15.95s12.56 5.49 15.44 6.08h.16c2.87-.59 8.69-2.16 15.43-6.09 6.75-3.93 12.85-9.31 18.15-15.99a.4.4 0 0 0-.03-.54Z" style="fill:#6faf3d"/><path d="M188.93 66.86c-6.19-3.97-15.94-6.83-28.98-8.51a.45.45 0 0 0-.51.37c-.04.21.06.46.34.53 10.01 2.59 20.99 7.23 20.99 8.86 0 .24-.35.38-.64.45-4.22 1.09-5.9 1.85-6 2.71-.09.83 1.3 1.53 3.39 2.59 3.64 1.83 9.14 4.61 10.81 10.17 4.42 14.76 1.99 44.23 1.45 49.98-.03.29.18.47.39.5h.07c.2 0 .4-.12.45-.38 1.92-10.57 2.9-26.68 3.1-50.7 0-.74.02-1.47.04-2.18.13-5.45.27-11.09-4.9-14.4Z" style="fill:#f5ab00"/><path d="M125.65 58.71a.456.456 0 0 0-.51-.37c-13.04 1.68-22.79 4.55-28.98 8.51-5.17 3.31-5.03 8.95-4.9 14.4.02.71.03 1.44.04 2.18.19 24.02 1.18 40.13 3.1 50.7.05.26.25.38.45.38h.07c.22-.03.42-.21.39-.5-.69-7.39-.89-17.17-1.09-26.64l-.04-1.72c-.17-7.82.68-14.89 2.58-21.63 1.54-5.46 6.56-8.32 9.88-10.22 2-1.14 3.33-1.9 3.21-2.77-.12-.91-1.86-1.7-6.21-2.83-.22-.06-.59-.18-.59-.38 0-1.55 12.18-5.96 22.27-8.57.27-.07.38-.32.34-.53Z" style="fill:#e45c7a"/><path d="M134.38 128.6c-.09-.93-.48-1.66-1.17-2.17-.67-.5-1.56-.75-2.65-.76-.64 0-1.13-.07-1.47-.19-.31-.12-.54-.26-.66-.43-.13-.18-.2-.37-.22-.58-.04-.4.09-.7.41-.93.36-.25.84-.41 1.42-.46.33-.03.61-.02.85.05.24.06.46.16.64.29s.35.3.5.51.36.35.63.41c.28.06.54 0 .76-.17.2-.16.31-.38.32-.63 0-.24-.08-.47-.26-.7-.26-.35-.57-.65-.91-.9s-.74-.43-1.18-.55-.94-.15-1.49-.09q-1.05.105-1.89.51c-.57.28-1.01.66-1.32 1.13-.31.48-.44 1.04-.38 1.67.08.85.49 1.55 1.22 2.06.7.5 1.63.75 2.76.75.75 0 1.3.15 1.64.43.33.28.51.6.55.98.03.29-.03.53-.18.74-.16.22-.39.41-.68.55-.3.15-.65.24-1.02.28-.34.03-.67.01-.98-.06s-.59-.18-.81-.32a1.36 1.36 0 0 1-.47-.45c-.12-.21-.3-.36-.51-.45a.95.95 0 0 0-.66-.04c-.36.11-.53.33-.6.49-.12.25-.1.52.05.76.23.42.57.79 1 1.09.43.29.92.5 1.46.64.38.09.77.14 1.17.14.17 0 .35 0 .52-.03a5.4 5.4 0 0 0 1.4-.33c.45-.17.85-.41 1.19-.71.35-.3.61-.67.79-1.09.19-.42.25-.91.2-1.45Zm4.85 2.89q1.5-.06 2.49-1.05c.17-.19.25-.41.21-.65a.93.93 0 0 0-.37-.58.8.8 0 0 0-.6-.17c-.2.03-.4.12-.57.27-.16.14-.33.24-.52.31-.2.07-.43.11-.7.12-.4.02-.76-.06-1.06-.23a1.87 1.87 0 0 1-.73-.72c-.18-.31-.28-.68-.3-1.09-.02-.44.05-.83.2-1.16.15-.32.37-.57.65-.76s.62-.29 1-.3c.55-.02 1.01.15 1.4.53.17.15.35.25.56.28.22.04.44-.02.62-.16a.9.9 0 0 0 .37-.57c.03-.17.02-.42-.22-.67-.38-.4-.81-.7-1.27-.89-.47-.19-.98-.28-1.53-.25-.73.03-1.38.22-1.93.58-.55.35-.99.84-1.29 1.43-.3.6-.44 1.27-.41 2.02.03.73.22 1.38.58 1.95.35.57.83 1.01 1.43 1.33.54.29 1.15.43 1.81.43h.19Zm10.83-1.83c.34-.57.53-1.23.55-1.98s-.12-1.43-.43-2.02a3.7 3.7 0 0 0-1.32-1.42c-.56-.35-1.22-.54-1.96-.56-.75-.03-1.42.12-2 .43-.59.31-1.06.76-1.41 1.33s-.54 1.24-.56 1.99c-.02.74.12 1.42.43 2.01s.76 1.07 1.32 1.42 1.23.54 1.97.56h.16c.68 0 1.3-.15 1.85-.43.59-.31 1.06-.76 1.4-1.33m-3.36.03c-.39-.01-.74-.11-1.03-.3-.3-.19-.52-.44-.69-.77-.16-.32-.24-.7-.23-1.12s.11-.8.3-1.11c.18-.32.42-.55.73-.73.3-.17.66-.25 1.05-.23.39.01.74.11 1.03.3.3.19.52.44.68.77s.23.71.22 1.13-.11.8-.29 1.11q-.27.465-.72.72c-.31.17-.65.25-1.05.24Zm6.83-8.39c-.31-.02-.59.07-.83.27s-.37.46-.4.77.07.59.27.83.46.38.77.4h.1c.27 0 .51-.09.73-.27.24-.2.38-.46.4-.77s-.07-.59-.27-.83-.46-.38-.77-.4m-.23 2.85q-.405-.03-.69.21-.3.24-.33.66l-.47 5.73c-.02.27.05.5.22.69.16.19.39.3.65.33s.06 0 .1 0c.24 0 .44-.07.61-.22.19-.16.29-.39.32-.65l.47-5.73a.95.95 0 0 0-.21-.7.9.9 0 0 0-.66-.32Zm5.31 6.56a.82.82 0 0 0-.6-.34l-.32-.03s-.12-.01-.2-.19c-.08-.17-.1-.39-.08-.65l.72-7.02a.9.9 0 0 0-.2-.69.88.88 0 0 0-.64-.33c-.27-.03-.5.04-.69.2-.19.15-.3.38-.33.64l-.72 7.02c-.05.5 0 .97.13 1.37.14.42.37.77.68 1.04s.69.44 1.13.48h.03c.06 0 .12.01.18.01.24 0 .46-.05.64-.16.25-.15.4-.38.43-.65a.93.93 0 0 0-.17-.68Zm-23.63 25.03a.61.61 0 0 0-.49-.16c-.04 0-.08 0-.12.02-.04.01-.08.03-.12.04l-1.42.62a.57.57 0 0 0-.31.28c-.06.11-.09.24-.08.37.01.19.09.34.22.46q.195.165.48.15c.12 0 .24-.04.37-.1l.41-.21.35 5.4c.01.18.09.33.23.45.13.11.27.17.43.17h.04c.18-.01.35-.09.46-.23.12-.14.18-.3.16-.48l-.41-6.31a.67.67 0 0 0-.21-.47Zm5.47-.13c-.36-.2-.77-.3-1.25-.28-.46 0-.87.12-1.22.34-.35.21-.63.51-.83.87-.19.36-.29.78-.28 1.24 0 .46.12.87.33 1.23q.315.54.87.84c.32.17.67.27 1.06.28l-1.07 1.86c-.09.15-.12.31-.09.47q.045.24.24.39c.12.1.27.15.43.15h.02c.17 0 .4-.07.58-.36l2.04-3.58s.05-.09.08-.13c.19-.37.29-.78.28-1.24 0-.46-.12-.87-.33-1.23s-.5-.64-.86-.84Zm-1.18.93c.21 0 .4.05.56.14.17.09.3.23.4.4q.15.27.15.63c0 .24-.04.45-.13.63s-.21.32-.38.42-.35.16-.58.16c-.22 0-.42-.04-.58-.14-.17-.1-.3-.23-.4-.41s-.15-.38-.16-.62c0-.24.04-.45.13-.63s.22-.32.38-.42.36-.15.58-.16zm5.77-1.17h-.12c-.04 0-.08.02-.12.03l-1.47.48c-.15.05-.26.13-.34.25a.67.67 0 0 0-.11.37c0 .19.05.35.18.48.12.12.28.19.46.2.12 0 .24-.02.37-.07l.43-.17-.17 5.41c0 .18.06.34.18.47s.28.2.45.21.02 0 .02 0c.18 0 .33-.06.46-.18s.2-.28.21-.46l.2-6.33c0-.19-.05-.35-.16-.48a.65.65 0 0 0-.47-.21m7.42 5.4a.86.86 0 0 0-.43-.16l-.37-.03.3-4.1a.73.73 0 0 0-.13-.48.63.63 0 0 0-.44-.24.69.69 0 0 0-.56.24l-3.91 4.41a.67.67 0 0 0-.01.86c.11.13.26.21.46.22l2.91.21-.07.99q-.015.27.15.48c.11.14.26.22.44.23s.04 0 .05 0c.17 0 .31-.06.43-.17q.195-.18.21-.45l.07-.99.37.03c.18.01.34-.03.47-.14.14-.11.22-.26.23-.43.02-.28-.09-.43-.19-.51Zm-1.92-2.62-.17 2.34-1.78-.13z" class="cls-2"/><path d="M93.51 166.76c.29 0 .93-3.17 4.6-5.51 13.43-8.6 36.7-9.93 44.47-10.14h.02c7.77.2 30.76 1.52 44.19 10.11 3.7 2.36 4.11 5.6 4.61 5.6.39 0-.12-8.37-.12-8.37.13-5.61 4.84-10.97-1.07-14.76-13.43-8.59-39.55-9.36-47.32-9.36-5.49 0-34.5.79-47.92 9.39-5.91 3.79-1.48 9.15-1.35 14.76.02.7-.45 8.29-.11 8.29Z" class="cls-2"/><path d="M106.27 147.85c-.3-.18-.64-.28-1.01-.3.15-.21.26-.43.32-.67.09-.35.08-.71-.04-1.06a2.3 2.3 0 0 0-.71-1.04c-.32-.26-.7-.43-1.13-.49q-.645-.09-1.35.15l-2.38.81c-.18.06-.32.18-.41.34q-.135.255-.03.54l2.31 6.75c.06.19.18.32.35.4.1.05.2.07.3.07.08 0 .16-.01.24-.04l2.59-.89c.52-.18.95-.44 1.28-.8.33-.35.55-.76.66-1.21.1-.45.07-.93-.1-1.41-.18-.54-.48-.93-.88-1.17Zm-2.2.96c.28-.1.56-.14.8-.12.24.01.44.09.61.21q.255.18.39.57.135.42.06.75c-.06.23-.17.42-.35.58-.18.17-.41.3-.7.4l-1.93.66-.82-2.38 1.93-.66Zm.13-1.71c-.16.24-.41.42-.76.54l-1.72.59-.67-1.96 1.72-.59c.35-.12.66-.13.93-.04.26.08.44.29.56.62.11.33.1.61-.06.84m9.57-.35c-.14-.59-.38-1.07-.71-1.42q-.495-.54-1.17-.72c-.44-.12-.92-.12-1.41 0-.47.12-.88.33-1.21.63-.09.08-.18.17-.26.27l-.53-2.19a.7.7 0 0 0-.3-.44.68.68 0 0 0-.53-.07c-.19.05-.33.15-.43.3a.7.7 0 0 0-.08.53l1.69 6.96c.05.19.15.34.31.43.11.07.22.1.34.1.06 0 .12 0 .18-.02.2-.05.35-.15.44-.31a.67.67 0 0 0 .07-.52l-.7-2.89c-.05-.22-.04-.43.04-.63s.21-.38.4-.54c.18-.16.41-.27.67-.33.29-.07.56-.08.81-.02.24.05.45.17.64.36.18.19.32.47.41.83l.61 2.52c.05.19.15.34.31.43.16.1.33.12.52.08a.687.687 0 0 0 .51-.83l-.61-2.52Zm4.96-3.59c-.26-.11-.6-.12-1.05-.04-.44.08-.83.26-1.15.53-.12.1-.24.22-.34.34a.57.57 0 0 0-.23-.31c-.14-.09-.31-.12-.53-.08-.21.04-.36.13-.46.27s-.13.32-.09.52l.86 4.63c.04.21.13.37.27.46.1.07.21.1.35.1.05 0 .11 0 .17-.02.21-.04.37-.13.46-.27s.12-.31.08-.52l-.56-3.03c-.05-.28 0-.52.14-.73.15-.22.38-.39.69-.52.32-.13.7-.2 1.13-.19.11 0 .22-.01.31-.05.1-.04.18-.1.25-.18.07-.09.11-.2.11-.33.01-.18-.05-.43-.41-.59Zm6.74 2.26c.1-.13.14-.29.12-.46-.08-.57-.26-1.07-.54-1.47-.28-.41-.65-.72-1.1-.92-.45-.19-.96-.25-1.53-.17s-1.07.29-1.48.61-.71.74-.9 1.23-.24 1.04-.15 1.63c.08.59.3 1.1.63 1.51.33.42.76.73 1.26.92.35.13.72.2 1.12.2a3.3 3.3 0 0 0 1.58-.38c.35-.18.64-.38.86-.61.18-.18.18-.36.16-.48-.03-.16-.13-.3-.31-.42-.13-.08-.28-.11-.44-.08-.15.03-.29.1-.4.21s-.27.22-.47.33c-.2.1-.4.17-.6.2-.37.05-.71.02-1.01-.1s-.56-.31-.76-.56c-.09-.12-.17-.26-.24-.41l3.78-.54a.64.64 0 0 0 .42-.24m-1.26-.8-3.1.44c.01-.13.04-.25.08-.36.09-.3.26-.54.49-.74.23-.19.54-.32.9-.37.09-.01.18-.02.26-.02q.315 0 .57.12a1.5 1.5 0 0 1 .79.93Zm8.45-.3c-.06-.58-.25-1.09-.56-1.52s-.72-.77-1.2-.99-1.01-.3-1.58-.25c-.57.06-1.08.25-1.51.56s-.76.72-.98 1.21-.3 1.03-.25 1.6c.06.57.24 1.09.53 1.52s.67.77 1.12.99c.37.18.77.27 1.19.27.1 0 .2 0 .3-.02a2.66 2.66 0 0 0 1.8-.92c.02.21.1.37.25.48q.21.18.51.15c.19-.02.35-.1.47-.25a.65.65 0 0 0 .15-.51l-.24-2.34Zm-1.45 1.09c-.12.29-.3.52-.54.71-.24.18-.53.29-.85.32s-.62-.02-.89-.15-.5-.33-.68-.58a1.84 1.84 0 0 1-.32-.91c-.04-.35 0-.67.13-.96a1.66 1.66 0 0 1 1.4-1.03c.07 0 .13-.01.19-.01.25 0 .49.05.7.16.27.13.5.33.67.58.18.26.28.57.32.92.03.34 0 .66-.13.95m7.53-.05a.56.56 0 0 0-.43-.11q-.225.03-.42.21c-.13.12-.28.22-.44.28q-.255.105-.6.12c-.35.02-.65-.04-.91-.18-.27-.14-.48-.34-.64-.6s-.26-.57-.28-.92c-.02-.37.03-.7.15-.98s.31-.5.55-.67.53-.26.85-.28c.47-.03.87.11 1.21.43.13.11.27.18.42.2.16.02.31-.02.44-.12.15-.12.24-.26.26-.42.02-.12 0-.29-.17-.47q-.465-.465-1.02-.69c-.37-.14-.78-.2-1.21-.17-.58.04-1.09.2-1.52.49s-.77.68-1 1.16-.32 1.02-.29 1.61c.04.58.2 1.09.49 1.54.29.44.68.79 1.15 1.03.41.21.87.31 1.37.31h.23c.79-.05 1.45-.34 1.95-.88.12-.14.17-.3.14-.47a.63.63 0 0 0-.28-.41Zm11.61-5.86a.8.8 0 0 0-.15-.17c-.39-.35-.8-.6-1.19-.76q-.6-.24-1.44-.27c-.6-.02-1.16.08-1.67.28-.51.21-.97.51-1.37.89-.39.38-.71.84-.94 1.36s-.36 1.09-.38 1.69c-.02.61.07 1.2.26 1.73.2.53.48 1.01.85 1.42s.81.74 1.31.97c.5.24 1.06.37 1.64.39h.15c.44 0 .87-.07 1.28-.2.45-.14.88-.37 1.3-.68.07-.07.13-.14.17-.23.04-.08.06-.17.06-.26 0-.19-.04-.35-.15-.47a.63.63 0 0 0-.4-.21c-.16-.02-.32.03-.48.13-.29.2-.59.35-.9.46-.3.11-.63.15-.97.14-.39-.01-.76-.1-1.1-.27s-.64-.4-.89-.69-.45-.62-.58-1c-.13-.37-.19-.78-.18-1.21.01-.42.1-.82.26-1.18a2.99 2.99 0 0 1 1.59-1.59c.35-.15.73-.21 1.11-.2.43.01.78.08 1.03.2.26.12.51.3.76.52.15.13.32.18.49.18s.32-.07.44-.17c.13-.11.2-.26.21-.44 0-.08 0-.14-.01-.2a.5.5 0 0 0-.08-.19Zm5.9 2.28c-.38-.25-.83-.4-1.34-.45-.48-.04-.94.03-1.35.21-.11.05-.22.11-.33.17l.19-2.24a.65.65 0 0 0-.63-.74.64.64 0 0 0-.5.15q-.21.18-.24.48l-.62 7.14q-.03.285.15.51c.12.14.28.22.47.24.2.02.38-.03.51-.15.14-.12.22-.28.23-.47l.26-2.96c.02-.23.1-.42.23-.58.14-.17.33-.3.55-.38.23-.09.47-.12.74-.1.3.03.56.11.77.24s.37.31.49.55c.11.24.15.55.12.92l-.22 2.58q-.03.285.15.51c.12.14.28.22.47.24h.07c.17 0 .31-.05.44-.16.14-.12.22-.28.24-.47l.22-2.58c.05-.6-.02-1.13-.22-1.57s-.49-.8-.88-1.05Zm4.35 4.94-.26-.03c-.06 0-.15-.04-.23-.21-.07-.15-.09-.35-.06-.58l.67-5.71a.7.7 0 0 0-.13-.51.7.7 0 0 0-.46-.25.7.7 0 0 0-.51.13c-.14.11-.22.27-.25.46l-.67 5.71c-.05.4-.02.76.09 1.09s.28.6.52.82.53.35.89.39h.16c.18 0 .33-.04.47-.11a.65.65 0 0 0 .32-.47.76.76 0 0 0-.11-.5.6.6 0 0 0-.43-.25Zm6.87-3.79c-.19-.03-.36 0-.51.12-.15.11-.24.26-.27.46l-.44 2.94c-.03.22-.12.41-.27.56q-.225.24-.57.36c-.23.07-.48.09-.75.05-.29-.04-.54-.14-.75-.28a1.18 1.18 0 0 1-.45-.58c-.1-.25-.12-.56-.07-.92l.39-2.56c.03-.19-.01-.37-.12-.52s-.26-.24-.46-.27a.67.67 0 0 0-.52.12c-.15.11-.24.26-.27.46l-.39 2.56c-.09.6-.05 1.13.12 1.58s.44.83.81 1.1c.37.28.81.45 1.31.53.49.07.95.03 1.37-.12.12-.05.25-.1.36-.17.01.12.06.22.13.32.11.15.26.24.46.27h.12c.15 0 .28-.04.4-.13a.7.7 0 0 0 .26-.46l.7-4.65c.03-.2 0-.38-.12-.52a.7.7 0 0 0-.46-.26Zm6.38 1.6c-.39-.36-.88-.59-1.44-.71a3 3 0 0 0-1.61.08c-.5.17-.94.46-1.3.86s-.6.89-.71 1.46c-.12.57-.1 1.11.05 1.6.15.5.41.93.77 1.28q.555.525 1.35.69a2.66 2.66 0 0 0 1.99-.35c-.04.21 0 .38.09.54.1.15.25.25.44.29.05.01.11.02.16.02.13 0 .25-.04.37-.11.15-.1.25-.25.29-.44l.47-2.3c.12-.57.09-1.11-.08-1.62a3 3 0 0 0-.85-1.3Zm-1.69.52c.32.07.6.2.81.41.22.21.38.46.47.76s.1.63.03.97-.21.63-.41.87-.44.41-.73.51c-.28.1-.59.12-.91.05-.32-.06-.59-.2-.81-.41a1.8 1.8 0 0 1-.48-.76c-.09-.3-.11-.62-.04-.96s.21-.64.41-.88a1.65 1.65 0 0 1 1.28-.6c.12 0 .24.01.36.04Zm6.84-1.15c.06-.22.03-.44-.09-.64s-.29-.33-.51-.39a.8.8 0 0 0-.64.09c-.2.12-.33.29-.39.52-.06.22-.03.44.09.64s.29.33.52.39a.79.79 0 0 0 .64-.09q.3-.18.39-.51Zm-1.19 1.21a.667.667 0 0 0-.84.49l-1.18 4.54c-.05.19-.03.37.07.53.09.16.24.27.43.32.07.02.13.03.2.03q.18 0 .33-.09c.15-.09.26-.24.31-.43l1.18-4.54c.05-.2.03-.37-.06-.53a.7.7 0 0 0-.43-.31Zm7.24 3.53c-.09-.48-.29-.89-.61-1.23-.31-.33-.72-.58-1.2-.74-.46-.15-.92-.19-1.36-.11-.13.02-.26.06-.39.1 0-.12-.01-.23-.07-.34a.7.7 0 0 0-.41-.34.67.67 0 0 0-.52.03c-.17.08-.28.22-.35.41l-1.48 4.46c-.06.19-.05.36.03.53s.22.28.4.34q.285.09.54-.03c.16-.08.27-.22.33-.41l.94-2.82q.105-.33.36-.51c.17-.13.38-.21.62-.25.24-.03.49 0 .75.08.28.09.52.23.7.41.18.17.29.39.35.65.05.26.02.57-.09.92l-.82 2.46c-.06.19-.05.36.03.53s.22.28.4.34c.08.03.16.04.23.04.1 0 .2-.02.3-.07.17-.08.28-.22.34-.4l.82-2.46c.19-.57.24-1.11.15-1.58Z" class="cls-4"/><path d="M162.8 89.15c-1.03-.08-2.78.2-3.62.43-.18.05-.32-.13-.24-.3.33-.64 1.12-1.44 1.59-2.79 1.08-3.06 2.52-4.79 2.8-5.2a.5.5 0 0 0 .05-.19v-1.43l-.33.13c-.5.19-1 .4-1.47.6-.77.32-1.49.63-2.25.87-.15.04-.2-.03-.41-.09-2.47-.74-5.61-1.9-11.4 3.19-.22.19-2.61 1.25-3.13-.59-.13-.47-.12-.92-.1-1.4 0-.29.02-.58 0-.89a3.65 3.65 0 0 0-1.34-2.59c-.87-.71-2.03-1.04-3.19-.9-2 .25-3.71.87-5.42 1.53-3.39 1.31-6.8 2.3-10.14 2.93-5.33 1-14.37 1.2-19.34.42l-.51-.08s0 .75.86 1.44q.03.03.06.03c1.15.32 6.73 1.13 8.59 1.32l.63.07c12.86 1.4 19.5-1.54 23.06-3.12.39-.17.73-.35 1.06-.46 1.92-.65 2.49.86 2.74 1.68.38 1.3.96 2.88 2.97 3.56 3.01 1.01 6.32-1.2 8.07-2.22 1.08-.63 4.04-1.39 5.87.15.05.04.08.11.08.17-.03 1.95-1.3 3.58-1.97 4.45-.03.04-.04.08-.04.13l.08 2.67.04.06c.24.37.79.24 1.09.17l.07-.02c.14-.03.38-.11.76-.24 1.57-.55 6.34-.87 8.25.45 3.15 2.18 2.6 5.94 2.72 11.76.07 3.26.13 6.38.73 8.69.07.25-.27.41-.42.2-.91-1.2-1.61-2.86-2.26-4.96-.79-2.55-1.45-7.31-2.32-8.54-1.8-2.55-4.22-2.13-6.39-1.53-1.95.53-3.3 1.74-5.97-.74-1.01-.94-1.26-1.18-1.98-.52-3.85 3.59-14.29 7.53-19.89 10.25-.75.37-1.44.7-2.02.98 2.83-2.43 11.75-12.9 11.82-12.99s.11-.18.13-.27c.01-.05-.06-4.02-.15-4.1-.22-.21-.36-.12-1.22.56-.96.76-4.45 3.76-7.68-.92a.21.21 0 0 0-.37.05c-.34.95-.33 1.7-.34 1.87-.06 2.18 2.24 4.23 4.5 3.64.19-.05.34.17.21.33-5.31 6.27-16.86 13.44-23.88 15.14l-.62.15s.71.88 1.86.96c.14.02 6.93-.29 9.99-1 .2-.05.33.2.18.34-4.89 4.61-10.17 13.48-10.21 13.53-.35.76.02 1.58.02 1.58l.37-.39c2.27-2.42 7.81-7.86 11.42-10.85 2.95-2.45 5.83-4.5 8.7-6.27.83-.5 2.92-1.6 5.34-2.88 3.96-2.09 8.88-4.68 10.55-5.85.37-.26.54-.31.68-.35.09-.02.25.09.39.2.07.05.14.1.2.14 2.09 1.3 5 1.29 8.28.23 7.06-2.28 3.83 15.2 16.37 23.79 1.92 1.31 2.82 1.69 3.75 1.09-14.84-12.13.94-35.97-16.33-37.26Z" class="cls-2"/></svg>